<svg xmlns="http://www.w3.org/2000/svg" xmlns:xlink="http://www.w3.org/1999/xlink" width="225" height="78" viewBox="0 0 225 78"><defs><path id="cmtpd" d="M108.67 61.88H96.11c-7.59 0-15.49-2.84-15.49-13.9V28.47c0-11.06 8.22-14.14 15.8-14.14h10.67c1.5 0 2.69 1.18 2.69 2.69 0 1.5-1.19 2.68-2.69 2.68h-9.64c-5.21 0-8.37 2.37-8.37 9.24v5.85h15c1.51 0 2.7 1.26 2.7 2.76 0 1.5-1.19 2.69-2.7 2.69h-15v7.1c0 6.96 3.4 9.09 8.6 9.09h11c1.5 0 2.68 1.26 2.68 2.76 0 1.5-1.19 2.69-2.69 2.69"/><path id="cmtpe" d="M129.14 62.5c-4.59 0-8.54-.31-12.88-2.6-.71-.4-1.74-1.03-1.58-2.69.08-1.42 1.02-2.6 2.76-2.6 2.77 0 3.56 2.52 11.14 2.52 3.8 0 8.22-2.13 8.22-7.03 0-4.97-5.77-6.95-10.5-9.32-3.88-1.9-11.39-4.9-11.39-14.06 0-7.42 6.4-13.03 15.73-13.03 4.58 0 9.8.87 12.64 2.45 1.03.55 1.27 1.5 1.27 2.45 0 1.42-1.27 2.76-2.7 2.76-2.6 0-5.2-2.37-10.03-2.37-5.37 0-8.21 2.85-8.21 6.08 0 6 5.53 7.43 11.85 10.75 5.92 3 10.43 5.6 10.43 12.8 0 8.68-7.5 13.9-16.75 13.9"/><path id="cmtpf" d="M164.46 62.5c-4.59 0-8.54-.31-12.88-2.6-.71-.4-1.74-1.03-1.58-2.69.08-1.42 1.02-2.6 2.76-2.6 2.77 0 3.56 2.52 11.14 2.52 3.8 0 8.22-2.13 8.22-7.03 0-4.97-5.77-6.95-10.5-9.32-3.88-1.9-11.39-4.9-11.39-14.06 0-7.42 6.4-13.03 15.73-13.03 4.58 0 9.8.87 12.64 2.45 1.03.55 1.27 1.5 1.27 2.45 0 1.42-1.27 2.76-2.69 2.76-2.6 0-5.22-2.37-10.04-2.37-5.37 0-8.21 2.85-8.21 6.08 0 6 5.53 7.43 11.85 10.75 5.93 3 10.43 5.6 10.43 12.8 0 8.68-7.5 13.9-16.75 13.9"/><path id="cmtpa" d="M185.44 13.69h38.84V62.5h-38.84z"/><path id="cmtph" d="M204.53 24.2a97.46 97.46 0 0 1 8.22 19.11c-2.45-.79-6.72-1.03-9.33-1.03-3.24 0-6.95.32-9.32 1.1a95.44 95.44 0 0 1 7.58-19.1c.4-.8.95-1.27 1.43-1.27.47 0 1.1.55 1.42 1.19zm15.64 38.3c2.06 0 4.59-1.81 4.03-5.2-1.66-11.54-4.34-22.52-9.71-32.95-1.66-3.31-5.46-10.66-9.1-10.66-4.18 0-7.9 7.42-9.55 10.82-5.38 10.74-8.78 23.54-10.36 34.91-.31 2.06 1.11 3.08 2.53 3.08 1.27 0 2.61-.4 2.85-2.29.4-3.24.87-6.4 1.5-9.55.31-1.35.63-2.06 2.53-2.53 2.76-.71 5.85-.95 8.53-.95 2.45 0 5.77.16 8.54.87 1.81.47 2.2 1.18 2.45 2.53.55 2.68 1.02 5.45 1.42 8.05a4.29 4.29 0 0 0 4.34 3.87z"/><path id="cmtpb" d="M0 11.13h72.3V77.5H0z"/><path id="cmtpj" d="M41.35 66.72c2.86-.77 5.71-.98 8.46-1.18 1.64-.12 3.23-.23 4.76-.46-.33 1.83-2.1 1.79-2.88 3.17-.23.42-.1 1.67-.3 2.22-.29.8-.77 1.53-1.3 2.18a13.73 13.73 0 0 1-8.72 4.8c-1.6.17-2.72-.03-3.57-.58 1.99-1.63 4.16-3.23 7.49-4.1l2.86-.72c-1.79.15-3.5.37-5.13.81-2.27.62-4.45 1.5-6.5 2.62-.36-.59-.65-1.3-.92-2.13a95.94 95.94 0 0 0-1.35-3.87 36.18 36.18 0 0 1 7.1-2.76zm2.92-9.13c-1.76.31-3.59.64-5.33 1.02a34.32 34.32 0 0 0-7.93 2.66c-.85-2.38-1.07-4.34.15-7 1.96-.74 4.1-1.37 6.42-1.88 1.87-.4 3.75-.74 5.58-1.06 4.98-.88 9.69-1.72 13.78-3.89 1.13-.6 2.22-1.31 3.28-2.09l-.1.24c-.82 2.32.1 4.67.59 7.02l-.8.45c-4.97 2.64-10.4 3.6-15.64 4.53zm24.94-3.72c1.7-.33 1.3 3.58 1.43 4.36-.13.3-.36.4-.67.27a9.9 9.9 0 0 1-.48 1.83c-.3.9-.69 1.82-1.06 2.7-.74 1.72-1.65 3.92-3.04 5.25-1.34 1.28-2.68 1.04-3.26-.79-.5-1.6-.1-2.93.62-4.32.36-.7.53-1.14.63-1.7 2.45-1.62 4.3-3.4 6.18-5.24l-.8.41c-.86.46-1.67.9-2.45 1.34-.97.53-1.93 1.06-2.96 1.6-.04-.3.06-.56.64-1.06 1.2-1.05 2.67-1.13 3.68-2.44.32-.42.83-2.07 1.54-2.2zm-20.55 4.45c6.2-1.76 9.43-3.17 12.22-4.64.14 1.12.1 2.24-.35 3.35-.6 1.47-1.8 2.42-3.1 3.27-.65.42-3 1.29-3.27 2-.09.21-.02.58.1.97-1.17.38-2.45.77-3.86 1.17-2.4.68-5.29.98-8.08 1.27-1.67.18-3.24.34-4.53.57-1.45.25-2.89.66-4.33 1.13a184.4 184.4 0 0 0-1.58-3.92c-.3-.7-.56-1.37-.8-2a37.8 37.8 0 0 1 5.6-1.47c1.51-.27 3.2-.45 4.98-.63 2.52-.27 5.13-.54 7-1.07zm-17.2-4.73c1.17-2.84-.22-6.13-2-8.5-.7-.93-1.3-1.56-1.65-2.42 6.39-1.17 12.12-5.03 18.16-9.08 3.36-2.27 6.85-4.61 10.52-6.5 1.7-.88 3.45-1.68 5.21-2.43.83.6 1.56.99 2.07 2 .44.88-.26.7.69 1.19.37.2 1.07.14 1.47.1.74-.06 5.62-2.13 6.06-.98l.1.27c-1.34.57-2.67 1.11-4 1.66-3.07 1.25-5.96 2.43-8.68 3.83a103.29 103.29 0 0 0-9.9 6.13c-2.53 1.71-5.1 3.44-7.77 4.99.98-.15 1.93-.3 2.85-.51C50.55 42.02 55.82 38.6 61.4 35c3.5-2.26 7.06-4.56 10.9-6.38.02 3.15-2.69 6.6-4.57 8.62-1.3 1.4-3.09 2.75-4.64 4.24-5.27 3.37-10.77 6.65-17.13 8.05-1.28.29-2.55.49-3.77.68a29.53 29.53 0 0 0-10.72 3.38zm1.74-15.16a121.14 121.14 0 0 1-5.67 3 6 6 0 0 1-.02-.36c-.03-1.16.61-2.9.1-4-.75-1.64-1.87-.46-3.1-.97l-.28-.14c1.96-.93 3.89-2 5.9-3.1l.52-.3c3.73-2.05 7.5-4.06 11.28-6.04-.16 1.83.1 2.96 1.8 3.2 3.59.51 5.62-1.77 7.77-4.19 1.84-2.06 3.75-4.2 6.7-4.32.84 1.05 1.75 2.01 2.72 2.84-9.2 4.47-18.3 9.17-27.2 14.09zM10.04 24.18c-3.3 1.03-6.14.92-8.63.82l-1.34-.04a5.2 5.2 0 0 1 .01-1.78c.22-1.12.94-2.21 1.23-3.33.1-.4.17-.8.22-1.2h.12c2.18.08 4.24.16 6.5-.54 1.75-.54 3.94-2 6.17-3.64 1.75 1.33 3.76 2.81 5.41 3.9-3.2 2.4-6.5 4.82-9.69 5.81zm.19-12.9c.16.14 1.4 1.12 3.04 2.4a78.5 78.5 0 0 1-11.65 4.14l.05-.58.1.37c2.72-1.42 4.78-3.5 6.16-4.9 1.01-1.04 1.56-1.62 2-1.58.12.01.22.06.3.16zm9.22 16.4c-4.16 2.21-8.6 4.58-13.3 6.15-.62-.5-1.24-1.06-1.9-1.68a16.63 16.63 0 0 1-2.8-3.57c5.07-1.22 10.1-3.9 15.02-6.51l.16-.09c1.6-.85 3.21-1.7 4.83-2.53.46.26.84.44 1.11.52 1.14.31 2.2-.57 3.54-1.68 1.35-1.12 2.87-2.39 4.94-2.78.5-.1 1.04-.14 1.58-.14 2.52 0 5.3.95 7.17 2.08a494.43 494.43 0 0 0-20.18 10.14zM22 34.05l-.05-.01c-1.61-.38-3.28.62-4.7 1.15-1.58.6-3.13.7-4.8.81a8.11 8.11 0 0 1-5.2-1.37c3.8-1.43 6.65-3.15 9.6-4.92 2.99-1.79 6.07-3.64 10.1-5.1 1.78-.65 3.51-1.21 5.19-1.76a72.35 72.35 0 0 0 9.63-3.66l.04.07c.88 1.71.58 3.85.3 5.73-.04.38-.1.74-.13 1.08-2.66 1.12-5.3 1.98-7.87 2.82-1.62.54-3.3 1.08-4.99 1.7-2.69.97-4.92 2.17-7.12 3.46z"/><path id="cmtpc" d="M1.62.38h56.72v29.6H1.62z"/><path id="cmtpl" d="M38.85 5.63c1.01-.7 2.93-.05 3.97.25.83.24 1.65.58 2.49.84a324.43 324.43 0 0 0-9.16 3.4c-2.95 1.13-5.73 2.2-8.4 3.13-2.14.74-4.97 2.85-7.7 4.89l-.48.36c-1.66-1.11-3.67-2.6-5.4-3.91.69-.5 1.38-1.03 2.08-1.55.91-.68 1.83-1.37 2.76-2.03-1.87.91-3.86 1.85-5.93 2.75-1.73-1.33-2.99-2.34-2.99-2.34-.61-.84-3.31 3.76-8.17 6.32l-.3.08c.09-1.01.16-2.02.49-3 1.3-3.85 5.63-3.9 7.38-7.05l.29-.53A89.9 89.9 0 0 0 22.87 2 32.08 32.08 0 0 1 26.82.4c1.21-.06 2.52 0 3.23.56 1.12.86.55 2.6-.48 3.58 1.21.96 3.02 1.42 4.44 1.99.7.27 2.88 1.59 3.57 1.41.83-.2.46-1.75 1.27-2.3zM14.86 1.52c1.29-.28 2.48.24 3.79.29-2.64 1.23-5.3 2.4-7.88 3.51.94-1.7 2.14-3.38 4.1-3.8zm37.12 11.53l.92-.53c.9 1.8 1.91 3.73 3.07 5.57l-.75.43c-1.2.71-2.37 1.46-3.6 2.25-1.92 1.24-3.9 2.5-6.02 3.61a47.71 47.71 0 0 1-3.82 1.78c.24-2.15.9-4.8-.13-6.81l-.05-.08 1.05-.52c1.87-.97 3.64-2.12 5.52-3.32 1.23-.8 2.5-1.61 3.81-2.38zm1.18-4.75c.13.46.39 2.28-.05 3.06a498.92 498.92 0 0 0-13.5 6.18c-2.25-1.32-5.8-2.36-8.52-1.84-4.08.77-6.12 5.13-8.57 4.45-.3-.09-.74-.3-1.26-.6C29.73 15.16 38.36 11 47.09 7.1l.33.02c1.28 0 2.68-.8 3.94-.64 1.18.15 1.43.46 1.8 1.83zm3.46 10.78c.54.8 1.12 1.58 1.72 2.32-6.27.1-7.67 9.5-14.64 8.5-1.85-.26-2.1-1.57-1.97-3.29 4.92-2.58 9.9-5.09 14.89-7.53z"/><path id="cmtpm" d="M221.4 76.16c.18-.01.33-.03.45-.06v-1.65a1.27 1.27 0 0 0-.35-.09 3.83 3.83 0 0 0-1.05 0c-.17.02-.32.06-.46.13a.98.98 0 0 0-.34.28.72.72 0 0 0-.14.46c0 .35.11.6.34.74.23.13.53.2.92.2l.63-.01zm.3-4.78c.27.1.49.24.65.43.17.19.29.41.36.67.07.26.1.54.1.86v3.45l-.35.06a10.26 10.26 0 0 1-1.14.13 8.4 8.4 0 0 1-.66.02c-.32 0-.6-.03-.86-.1a1.92 1.92 0 0 1-.69-.3c-.19-.13-.34-.32-.44-.54-.1-.23-.16-.5-.16-.82 0-.3.06-.57.18-.79.13-.22.3-.4.51-.53.21-.13.46-.23.74-.3a4.06 4.06 0 0 1 1.9.05v-.28c0-.16-.01-.32-.05-.48a.97.97 0 0 0-.57-.72 1.48 1.48 0 0 0-.62-.12 4.69 4.69 0 0 0-1.4.21l-.12-.81a5.51 5.51 0 0 1 1.6-.24c.4 0 .74.04 1.01.15zm-6.62 5.42a2.36 2.36 0 0 1-1.37-1.5 3.77 3.77 0 0 1 .02-2.34c.12-.35.3-.66.53-.91.22-.26.5-.46.83-.61.33-.15.7-.22 1.1-.22a4.43 4.43 0 0 1 1.46.27l-.23.84a2.91 2.91 0 0 0-1.14-.23c-.55 0-.97.17-1.26.51-.3.35-.44.86-.44 1.52 0 .3.03.57.1.82.06.25.17.46.32.64.14.18.33.31.55.4.23.1.5.15.83.15a3.13 3.13 0 0 0 1.21-.23l.14.83c-.05.03-.14.07-.24.1a3.5 3.5 0 0 1-.8.15l-.43.02c-.45 0-.84-.07-1.18-.2zm-4.02-5.44h.99v5.53h-1zm.03-1.17a.62.62 0 0 1-.18-.48.62.62 0 0 1 .64-.65c.17 0 .32.06.45.18.12.12.18.27.18.47a.62.62 0 0 1-.63.65.64.64 0 0 1-.46-.17zm-1.9 1.07a4.77 4.77 0 0 1 .8.14l-.17.86a3.36 3.36 0 0 0-1.98-.02v4.65h-1v-5.3a6.69 6.69 0 0 1 2.05-.35c.08 0 .18 0 .3.02zm-3.65-2.56l.45.12-.18.85a2.39 2.39 0 0 0-.94-.18c-.46 0-.78.13-.97.38-.18.25-.27.59-.27 1.01v.48h2.12v.83h-2.12v4.7h-1v-6.03c0-.7.18-1.25.53-1.64.35-.39.9-.58 1.64-.58.29 0 .54.02.74.06zm-6.04 5.45l-.67-1.79c-.23-.57-.46-1.13-.7-1.66-.25.53-.48 1.09-.7 1.66a70.9 70.9 0 0 0-.67 1.8zm.97 2.74a32.99 32.99 0 0 1-.67-1.89h-3.34l-.67 1.89h-1.07a247.12 247.12 0 0 1 1.52-4.05 66.05 66.05 0 0 1 1.44-3.32h.95a43.62 43.62 0 0 1 1.44 3.32 96.6 96.6 0 0 1 1.53 4.05zm-13.76-5.37a7.8 7.8 0 0 1 2.2-.28c.44 0 .8.07 1.1.19.29.12.52.3.7.52.17.22.29.49.36.8.07.31.1.66.1 1.03v3.1h-.98V74c0-.34-.02-.63-.07-.88a1.48 1.48 0 0 0-.23-.58.9.9 0 0 0-.42-.32c-.18-.07-.4-.1-.66-.1a5.54 5.54 0 0 0-1.1.1v4.67h-1zm-3.16 4.64c.18-.01.33-.03.45-.06v-1.65a1.27 1.27 0 0 0-.34-.09 3.83 3.83 0 0 0-1.06 0c-.16.02-.32.06-.45.13a.98.98 0 0 0-.35.28.72.72 0 0 0-.14.46c0 .35.12.6.34.74.23.13.54.2.93.2l.62-.01zm.3-4.78c.27.1.5.24.66.43.16.19.28.41.35.67.07.26.1.54.1.86v3.45l-.35.06a10.07 10.07 0 0 1-1.13.13 8.4 8.4 0 0 1-.67.02c-.31 0-.6-.03-.86-.1a1.92 1.92 0 0 1-.68-.3c-.2-.13-.34-.32-.45-.54-.1-.23-.16-.5-.16-.82a1.48 1.48 0 0 1 .7-1.32c.2-.13.46-.23.74-.3a4.06 4.06 0 0 1 1.5-.03l.25.04.15.04v-.28c0-.16-.02-.32-.05-.48a1.1 1.1 0 0 0-.2-.43.97.97 0 0 0-.37-.3 1.48 1.48 0 0 0-.62-.1 4.68 4.68 0 0 0-1.4.2l-.12-.81a5.51 5.51 0 0 1 1.6-.24c.4 0 .73.04 1 .15zm-4.67-.12a4.73 4.73 0 0 1 .81.14l-.17.86a3.38 3.38 0 0 0-1.98-.02v4.65h-1v-5.3a6.67 6.67 0 0 1 2.05-.35c.08 0 .18 0 .3.02zm-5.5 4.9c.19-.01.34-.03.46-.06v-1.65a1.27 1.27 0 0 0-.35-.09 3.83 3.83 0 0 0-1.05 0c-.17.02-.32.06-.46.13a.98.98 0 0 0-.34.28.72.72 0 0 0-.14.46c0 .35.11.6.34.74.22.13.53.2.92.2l.62-.01zm.3-4.78c.28.1.5.24.66.43.17.19.29.41.36.67.07.26.1.54.1.86v3.45l-.35.06a10.08 10.08 0 0 1-1.14.13l-.66.02c-.32 0-.6-.03-.87-.1a1.92 1.92 0 0 1-.68-.3c-.19-.13-.34-.32-.44-.54-.1-.23-.16-.5-.16-.82 0-.3.06-.57.18-.79.13-.22.3-.4.51-.53.21-.13.46-.23.74-.3a4.07 4.07 0 0 1 1.9.05v-.28c0-.16-.01-.32-.05-.48a.97.97 0 0 0-.57-.72 1.48 1.48 0 0 0-.62-.12 4.68 4.68 0 0 0-1.4.21l-.12-.81a5.5 5.5 0 0 1 1.6-.24c.4 0 .74.04 1.01.15zm-8.96 5.5v-8.07l.98-.17v2.83a3.35 3.35 0 0 1 1.22-.23c.44 0 .8.07 1.1.19.28.12.51.3.69.52.17.22.3.49.36.8.07.31.11.66.11 1.03v3.1h-.99V74c0-.34-.02-.63-.07-.88a1.47 1.47 0 0 0-.23-.58.9.9 0 0 0-.42-.32c-.18-.07-.4-.1-.66-.1-.1 0-.22 0-.33.02a6.66 6.66 0 0 0-.78.16v4.59zm-3.17-.72c.18-.01.33-.03.45-.06v-1.65a1.27 1.27 0 0 0-.34-.09 3.84 3.84 0 0 0-1.05 0c-.17.02-.32.06-.46.13a.98.98 0 0 0-.35.28.73.73 0 0 0-.13.46c0 .35.1.6.34.74.22.13.53.2.92.2l.62-.01zm.3-4.78c.27.1.5.24.66.43.17.19.29.41.36.67.07.26.1.54.1.86v3.45l-.35.06a10.14 10.14 0 0 1-1.14.13l-.67.02c-.3 0-.6-.03-.86-.1a1.92 1.92 0 0 1-.68-.3c-.19-.13-.34-.32-.44-.54-.11-.23-.16-.5-.16-.82 0-.3.06-.57.18-.79.13-.22.3-.4.5-.53.22-.13.47-.23.75-.3a4.07 4.07 0 0 1 1.9.05v-.28c0-.16-.01-.32-.05-.48a.98.98 0 0 0-.57-.72 1.48 1.48 0 0 0-.62-.12 4.68 4.68 0 0 0-1.4.21l-.12-.81a5.51 5.51 0 0 1 1.6-.24c.4 0 .74.04 1.01.15zM157 75.05c0-.23-.05-.42-.14-.58a1.4 1.4 0 0 0-.4-.42 2.69 2.69 0 0 0-.55-.3l-.66-.25c-.27-.1-.53-.2-.77-.32a2.67 2.67 0 0 1-.63-.41 1.75 1.75 0 0 1-.42-.57c-.1-.22-.15-.49-.15-.8 0-.64.22-1.14.66-1.5a2.78 2.78 0 0 1 1.82-.55c.44 0 .85.05 1.21.15.37.1.64.2.8.3l-.32.85a3.57 3.57 0 0 0-2.24-.34c-.18.04-.33.1-.45.19a.92.92 0 0 0-.41.79c0 .2.03.36.1.5.09.13.2.25.34.35.14.1.3.2.5.28.18.09.39.17.61.26.32.13.62.25.88.38.27.13.5.28.7.46.19.17.34.39.44.63.11.24.16.54.16.89 0 .64-.23 1.14-.7 1.48-.47.35-1.14.53-2 .53a5.14 5.14 0 0 1-2.27-.53l.3-.85a3.83 3.83 0 0 0 1.97.48c1.08 0 1.62-.37 1.62-1.1zm-11.33.97a5.08 5.08 0 0 0 1.1.12c.52 0 .95-.17 1.27-.52.32-.35.48-.85.48-1.5 0-.28-.03-.55-.09-.8a1.8 1.8 0 0 0-.28-.64c-.12-.18-.29-.32-.49-.42a1.95 1.95 0 0 0-1.47-.02c-.23.1-.4.19-.52.29zm0-4.42a2.67 2.67 0 0 1 1.39-.37c.4 0 .75.07 1.06.22.3.14.57.34.78.59.21.26.37.56.48.91a3.94 3.94 0 0 1-.03 2.38 2.46 2.46 0 0 1-1.43 1.48c-.34.14-.72.2-1.15.2a6.93 6.93 0 0 1-2.1-.28V68.8l1-.17zm-2.8 5.13l-.9.18c-.37.06-.8.1-1.29.1-.42 0-.78-.07-1.07-.2-.3-.12-.53-.3-.7-.52-.18-.23-.3-.5-.39-.8-.07-.31-.11-.65-.11-1.03v-3.1h.99v2.9c0 .66.1 1.15.31 1.44.22.29.57.43 1.08.43a5.24 5.24 0 0 0 1.1-.1v-4.67h.98zm-6.77-1.68c0-.23-.05-.42-.14-.58-.1-.16-.23-.3-.4-.42a2.68 2.68 0 0 0-.55-.3l-.66-.25c-.27-.1-.53-.2-.77-.32a2.67 2.67 0 0 1-.63-.41 1.76 1.76 0 0 1-.42-.57c-.1-.22-.15-.49-.15-.8 0-.64.22-1.14.66-1.5a2.78 2.78 0 0 1 1.82-.55c.44 0 .85.05 1.21.15.37.1.63.2.8.3l-.32.85a3.57 3.57 0 0 0-2.24-.34c-.18.04-.33.1-.45.19a.95.95 0 0 0-.3.32.92.92 0 0 0-.12.47.98.98 0 0 0 .45.85c.14.1.3.2.5.28.18.09.39.17.61.26.32.13.62.25.88.38.27.13.5.28.7.46.19.17.34.39.44.63.11.24.16.54.16.89 0 .64-.23 1.14-.7 1.48-.47.35-1.14.53-2 .53a5.14 5.14 0 0 1-2.27-.53l.3-.85a3.82 3.82 0 0 0 1.97.48c1.08 0 1.62-.37 1.62-1.1zm-12.16-3.53a7.8 7.8 0 0 1 2.2-.28c.44 0 .8.07 1.1.19.28.12.52.3.69.52.17.22.3.49.37.8.07.31.1.66.1 1.03v3.1h-.99V74c0-.34-.02-.63-.06-.88a1.48 1.48 0 0 0-.23-.58.9.9 0 0 0-.43-.32c-.18-.07-.4-.1-.66-.1a5.54 5.54 0 0 0-1.1.1v4.67h-1zm-2.95 1.12a1.36 1.36 0 0 0-1.14-.55c-.49 0-.87.19-1.15.55-.28.37-.42.86-.42 1.48 0 .63.14 1.12.42 1.49.28.36.66.54 1.15.54.48 0 .86-.18 1.14-.54.28-.37.42-.86.42-1.49 0-.62-.14-1.11-.42-1.48zm1.26 2.67c-.13.36-.3.66-.54.92-.23.25-.5.45-.82.59-.32.13-.67.2-1.05.2a2.6 2.6 0 0 1-1.04-.2c-.32-.14-.6-.34-.82-.6-.23-.25-.41-.55-.54-.9-.13-.36-.19-.76-.19-1.2 0-.43.06-.82.2-1.18.12-.36.3-.67.53-.92.23-.26.5-.45.82-.6.32-.13.67-.2 1.04-.2a2.36 2.36 0 0 1 1.87.8c.23.25.41.56.54.92.12.36.19.75.19 1.18 0 .44-.07.84-.2 1.2zm-7.49-3.95h1v5.53h-1zm.04-1.17a.62.62 0 0 1-.19-.48.62.62 0 0 1 .64-.65c.18 0 .33.06.45.18.13.12.19.27.19.47a.62.62 0 0 1-.64.65.64.64 0 0 1-.45-.17zm-3.5 1.17h2.1v.83h-2.1v2.55c0 .28.03.5.07.68.04.19.1.33.2.43.08.1.18.17.31.22a2.11 2.11 0 0 0 1.16-.04l.38-.14.2.82a3.62 3.62 0 0 1-1.38.3c-.37 0-.68-.06-.93-.15-.24-.1-.44-.24-.59-.43-.15-.2-.25-.43-.31-.7-.06-.29-.09-.61-.09-.98v-4.93l.99-.17zm-4.08 4.8c.18-.01.33-.03.45-.06v-1.65a1.27 1.27 0 0 0-.34-.09 3.84 3.84 0 0 0-1.06 0c-.16.02-.31.06-.45.13a.99.99 0 0 0-.35.28.73.73 0 0 0-.14.46c0 .35.12.6.34.74.23.13.54.2.93.2l.62-.01zm.3-4.78c.27.1.5.24.66.43.16.19.28.41.35.67.07.26.11.54.11.86v3.45l-.36.06a10.12 10.12 0 0 1-1.13.13 8.4 8.4 0 0 1-.67.02c-.31 0-.6-.03-.86-.1a1.92 1.92 0 0 1-.68-.3c-.19-.13-.34-.32-.45-.54-.1-.23-.16-.5-.16-.82 0-.3.07-.57.2-.79.11-.22.28-.4.5-.53.2-.13.46-.23.74-.3a4.06 4.06 0 0 1 1.9.05v-.28c0-.16-.02-.32-.05-.48-.04-.16-.1-.3-.2-.43a.97.97 0 0 0-.37-.3 1.48 1.48 0 0 0-.62-.1 4.68 4.68 0 0 0-1.4.2l-.12-.81a5.51 5.51 0 0 1 1.6-.24c.4 0 .74.04 1 .15zm-6.61 5.42a2.36 2.36 0 0 1-1.37-1.5 3.77 3.77 0 0 1 .02-2.34c.12-.35.3-.66.52-.91.23-.26.5-.46.84-.61.33-.15.7-.22 1.1-.22a4.43 4.43 0 0 1 1.45.27l-.22.84a2.91 2.91 0 0 0-1.14-.23c-.55 0-.97.17-1.27.51-.3.35-.44.86-.44 1.52 0 .3.03.57.1.82s.18.46.32.64c.15.18.33.31.56.4.23.1.5.15.83.15a3.14 3.14 0 0 0 1.21-.23l.14.83c-.06.03-.14.07-.25.1a3.5 3.5 0 0 1-.79.15l-.44.02c-.45 0-.84-.07-1.17-.2zm-3.04-.07l-.9.18c-.37.06-.8.1-1.29.1-.42 0-.78-.07-1.07-.2-.3-.12-.53-.3-.7-.52-.18-.23-.3-.5-.39-.8-.07-.31-.11-.65-.11-1.03v-3.1h.98v2.9c0 .66.11 1.15.32 1.44.22.29.57.43 1.08.43a5.22 5.22 0 0 0 1.1-.1v-4.67h.98zm-7.2-4.2c-.12-.1-.29-.2-.52-.29a1.96 1.96 0 0 0-1.47.02c-.2.1-.37.24-.5.42-.12.18-.21.4-.27.65-.06.24-.09.51-.09.8 0 .64.16 1.14.48 1.49.32.35.75.52 1.28.52a5.08 5.08 0 0 0 1.1-.12zm0-3.72l1-.17v8.09a6.94 6.94 0 0 1-2.1.29c-.43 0-.81-.07-1.15-.2a2.45 2.45 0 0 1-1.43-1.5 3.91 3.91 0 0 1-.03-2.37c.1-.35.27-.65.48-.91.21-.25.48-.45.78-.6.31-.14.66-.2 1.06-.2a2.57 2.57 0 0 1 1.4.36zm-9.5 8.08v-7.37h4.5v.88h-3.47v2.2h3.08v.85H82.2V76h3.73v.89z"/><clipPath id="cmtpg"><use xlink:href="#cmtpa"/></clipPath><clipPath id="cmtpi"><use xlink:href="#cmtpb"/></clipPath><clipPath id="cmtpk"><use xlink:href="#cmtpc"/></clipPath></defs><g><g><g><use fill="#00a9bf" xlink:href="#cmtpd"/></g><g><use fill="#89af1a" xlink:href="#cmtpe"/></g><g><use fill="#d8b015" xlink:href="#cmtpf"/></g><g><g/><g clip-path="url(#cmtpg)"><use fill="#d2321b" xlink:href="#cmtph"/></g></g><g><g/><g clip-path="url(#cmtpi)"><use fill="#d2321b" xlink:href="#cmtpj"/></g></g><g><g/><g clip-path="url(#cmtpk)"><use fill="#e89f7b" xlink:href="#cmtpl"/></g></g><g><use fill="#69707a" xlink:href="#cmtpm"/></g></g></g></svg>